<svg width="75" height="165" viewBox="0 0 75 165" fill="none" xmlns="http://www.w3.org/2000/svg">
<path d="M35.9666 90.2634C34.641 94.5604 36.6295 99.6404 40.5117 101.902C42.1366 102.848 44.0114 103.328 45.5908 104.353C49.0186 106.581 50.3707 110.856 51.4843 114.786C52.7607 119.306 54.0447 124.083 52.8743 128.63C52.1168 131.527 50.4314 134.092 49.4655 136.929C48.6588 139.304 48.3784 141.826 48.6436 144.32C48.7838 145.644 49.1171 147.021 50.0223 147.997C51.3328 149.408 53.4311 149.62 55.3249 149.96C59.3357 150.72 63.1089 152.42 66.335 154.918C69.5611 157.417 72.1481 160.643 73.8839 164.334" stroke="#535461" stroke-width="2" stroke-miterlimit="10"/>
<path d="M41.6328 93.1647H32.7283L34.285 87.8275H39.6292L41.6328 93.1647Z" fill="#F55F44"/>
<path d="M73.918 36.9103C73.918 57.2946 57.3701 87.1618 36.959 87.1618C16.5478 87.1618 0 57.2794 0 36.9103C0 27.1211 3.89388 17.7328 10.825 10.8108C17.7562 3.88875 27.1569 0 36.959 0C46.7611 0 56.1618 3.88875 63.093 10.8108C70.0241 17.7328 73.918 27.1211 73.918 36.9103V36.9103Z" fill="#F55F44"/>
</svg>
