<svg width="74" height="198" viewBox="0 0 74 198" fill="none" xmlns="http://www.w3.org/2000/svg">
<path d="M38.2203 90.6077C34.9516 95.1467 31.558 100.064 31.2777 105.651C30.8497 114.249 37.7166 121.281 40.811 129.322C42.1425 132.864 42.7452 136.637 42.5832 140.416C42.4212 144.195 41.4977 147.903 39.8679 151.318C38.3529 154.416 36.2281 157.491 36.4894 160.922C36.6485 163.017 37.6976 164.92 38.5423 166.845C40.6151 171.67 41.5198 176.915 41.1829 182.154C40.846 187.394 39.2769 192.48 36.603 197" stroke="#535461" stroke-width="2" stroke-miterlimit="10"/>
<path d="M41.6405 93.1685H32.7359L34.2926 87.8312H39.6368L41.6405 93.1685Z" fill="#4D8AF0"/>
<path d="M73.9256 36.9103C73.9256 57.2946 57.3777 87.1618 36.9666 87.1618C16.5554 87.1618 0 57.2984 0 36.9103C0 27.1211 3.89388 17.7328 10.825 10.8108C17.7562 3.88875 27.1569 0 36.959 0C46.7611 0 56.1618 3.88875 63.093 10.8108C70.0241 17.7328 73.918 27.1211 73.918 36.9103H73.9256Z" fill="#4D8AF0"/>
</svg>
