<svg width="74" height="159" viewBox="0 0 74 159" fill="none" xmlns="http://www.w3.org/2000/svg">
<path d="M36.1485 90.184L37.7279 103.045C37.9362 104.754 38.1066 106.619 37.1976 108.076C36.3265 109.456 34.6941 110.114 33.4101 111.136C29.2438 114.483 29.6225 120.914 31.0466 126.069C32.4708 131.225 34.5615 136.763 32.5617 141.721C31.736 143.768 30.2891 145.504 29.1869 147.395C27.3398 150.679 26.6076 154.472 27.1 158.206" stroke="#535461" stroke-width="2" stroke-miterlimit="10"/>
<path d="M73.918 36.9103C73.918 57.2946 57.3702 87.1617 36.959 87.1617C16.5479 87.1617 0 57.2794 0 36.9103C2.92126e-07 27.1211 3.89388 17.7328 10.825 10.8108C17.7562 3.88876 27.1569 0 36.959 0C46.7612 0 56.1618 3.88876 63.093 10.8108C70.0241 17.7328 73.918 27.1211 73.918 36.9103Z" fill="#3AD29F"/>
<path d="M41.6776 93.9219H32.7693L34.3297 88.5885H39.6702L41.6776 93.9219Z" fill="#3AD29F"/>
</svg>
