<svg width="61" height="47" viewBox="0 0 61 47" fill="none" xmlns="http://www.w3.org/2000/svg">
<path d="M53.8516 10.5256L57.4258 29.3937L53.8516 46.7324H7.14844L3.57422 29.774L7.14844 10.5256C5.96609 9.63787 13.6069 9.11687 18.6691 12.9173C24.9015 17.5963 29.1874 26.9824 30.5 27.9678C30.7028 27.8155 31.4973 21.8522 38.0538 16.9299C43.0606 13.1709 54.5265 10.0189 53.8516 10.5256Z" fill="#FFF5F5"/>
<path d="M53.8516 46.7324L57.4258 29.3936L53.8516 10.5256C54.5265 10.0188 43.0606 13.1707 38.0538 16.9299C31.4972 21.852 30.7029 27.8155 30.5 27.9678V46.7324H53.8516Z" fill="#E3E7EA"/>
<path d="M45.4339 16.8524C45.368 16.9017 45.289 16.9611 45.2158 17.016C45.1682 17.0519 45.2628 16.9807 45.4339 16.8524Z" fill="#00A66C"/>
<path d="M7.14844 4.73535V46.7324H5.36133C2.39461 46.7324 0 44.3376 0 41.3711V5.62891C0 5.48582 0 5.34285 0.0357422 5.2L7.14844 4.73535Z" fill="#F03800"/>
<path d="M61 5.62892V41.3711C61 44.3376 58.6054 46.7324 55.6387 46.7324H53.8516V8.30958L60.9643 5.20001C61 5.34286 61 5.48583 61 5.62892Z" fill="#CD0000"/>
<path d="M60.9654 5.2C25.6036 31.7318 66.0292 1.31113 30.5011 27.9678C27.3983 25.6398 41.6219 36.401 0.0368195 5.2C0.251273 2.41199 2.53889 0.267578 5.36241 0.267578L19.4676 4.59155L30.5011 19.0322L38.4779 6.79482L55.6398 0.267578C58.4633 0.267578 60.7509 2.41199 60.9654 5.2Z" fill="#FF641A"/>
<path d="M30.5 27.9678C30.5097 27.9749 30.5087 27.9743 30.5 27.9678C32.994 26.0966 56.8029 8.3222 60.9643 5.2C60.7498 2.41199 58.4623 0.267578 55.6387 0.267578L38.4768 6.7947L30.5 19.0322V27.9678Z" fill="#F03800"/>
<path d="M55.6387 0.267578L30.5 19.0322L5.36133 0.267578H55.6387Z" fill="#FFF5F5"/>
<path d="M55.6387 0.267578H30.5V19.0322L55.6387 0.267578Z" fill="#E3E7EA"/>
</svg>
