<svg width="321" height="194" viewBox="0 0 321 194" fill="none" xmlns="http://www.w3.org/2000/svg">
<g clip-path="url(#clip0)">
<path d="M49.6949 60.7939V70.5209C53.7778 70.5209 57.6935 72.1435 60.5806 75.0318C63.4676 77.92 65.0896 81.8374 65.0896 85.922C65.0896 90.0066 63.4676 93.924 60.5806 96.8122C57.6935 99.7005 53.7778 101.323 49.6949 101.323V111.05H99.93V60.7939H49.6949Z" fill="#F2F2F2"/>
<path d="M49.6949 98.0808C56.4072 98.0808 61.8486 92.6371 61.8486 85.922C61.8486 79.2069 56.4072 73.7632 49.6949 73.7632C42.9827 73.7632 37.5413 79.2069 37.5413 85.922C37.5413 92.6371 42.9827 98.0808 49.6949 98.0808Z" fill="#F2F2F2"/>
<path d="M233.89 98.0946L214.174 85.9369V179.95H233.89V98.0946Z" fill="#F2F2F2"/>
<path d="M183.925 179.95H203.641V79.4416L183.925 67.284V179.95Z" fill="#F2F2F2"/>
<path d="M173.392 60.7885L74.8125 0V54.8496H106.412V118.075H74.8125V179.95H173.392V60.7885Z" fill="#F2F2F2"/>
<path d="M244.423 104.59V179.95H254.687L282.505 128.072L244.423 104.59Z" fill="#F2F2F2"/>
<path d="M282.725 143.985C266.363 156.22 261.75 177.716 261.75 177.716C261.75 177.716 283.664 179.374 300.025 167.139C316.387 154.904 321 133.408 321 133.408C321 133.408 299.086 131.749 282.725 143.985Z" fill="#3F3D56"/>
<path d="M261.763 177.508C261.763 177.508 261.522 177.374 261.088 177.107C260.741 176.894 260.265 176.597 259.691 176.217C254.549 172.827 241.23 162.859 235.767 147.478C228.932 128.22 237.003 107.77 237.003 107.77C237.003 107.77 254.609 117.672 262.087 135.457C262.413 136.223 262.715 137.004 262.998 137.801C268.946 154.557 263.608 172.215 262.122 176.519C261.898 177.164 261.763 177.508 261.763 177.508Z" fill="#6C63FF"/>
<path d="M261.842 178.116L261.592 177.934C261.413 177.805 243.655 164.754 239.093 144.971C234.53 125.189 244.775 105.673 244.88 105.478L245.025 105.205L245.276 105.387C245.455 105.516 263.212 118.568 267.775 138.35C272.338 158.133 262.092 177.648 261.988 177.843L261.842 178.116ZM245.212 106.015C243.981 108.472 235.4 126.557 239.619 144.85C243.838 163.143 259.472 175.637 261.655 177.307C262.887 174.849 271.468 156.764 267.249 138.472C263.03 120.179 247.395 107.684 245.212 106.015Z" fill="#3F3D56"/>
<path opacity="0.1" d="M262.122 176.519C261.723 176.752 261.374 176.947 261.088 177.107C260.457 177.452 260.107 177.625 260.107 177.625C260.107 177.625 259.942 177.128 259.691 176.217C258.305 171.233 254.34 153.864 260.977 137.91C261.326 137.074 261.696 136.257 262.087 135.457C262.413 136.223 262.715 137.004 262.998 137.801C268.946 154.557 263.608 172.215 262.122 176.519Z" fill="black"/>
<path d="M289.554 149.71C281.708 168.578 262.008 178.322 262.008 178.322C262.008 178.322 255.029 157.474 262.875 138.606C270.721 119.738 290.422 109.994 290.422 109.994C290.422 109.994 297.401 130.842 289.554 149.71Z" fill="#6C63FF"/>
<path d="M290.023 110.722L261.95 177.671L262.448 177.88L290.521 110.931L290.023 110.722Z" fill="#3F3D56"/>
<path d="M318.021 183.865C318.021 186.396 303.472 188.71 279.417 190.487C275.044 190.808 270.356 191.113 265.386 191.399C261.089 191.646 256.587 191.878 251.879 192.096C247.317 192.303 242.581 192.495 237.67 192.673C222.157 193.237 205.011 193.643 186.795 193.846C182.375 193.894 177.894 193.932 173.354 193.96C168.628 193.987 163.846 194 159.01 194C71.1906 194 0 189.464 0 183.865C0 178.267 71.1906 173.731 159.01 173.731C196.817 173.731 231.539 174.573 258.828 175.975C259.833 176.027 260.827 176.079 261.811 176.129C261.817 176.132 261.824 176.134 261.831 176.133C296.205 177.994 318.021 180.766 318.021 183.865Z" fill="#3F3D56"/>
<path opacity="0.15" d="M318.021 183.865C318.021 186.396 303.472 188.71 279.417 190.487C275.044 190.808 270.356 191.113 265.386 191.399C261.089 191.646 256.587 191.878 251.879 192.096C247.317 192.303 242.581 192.495 237.67 192.673C222.157 193.237 205.011 193.643 186.795 193.846C182.375 193.894 177.894 193.932 173.354 193.96C168.628 193.987 163.846 194 159.01 194C71.1906 194 0 189.464 0 183.865C0 178.267 71.1906 173.731 159.01 173.731C196.817 173.731 231.539 174.573 258.828 175.975C259.833 176.027 260.827 176.079 261.811 176.129C261.817 176.132 261.824 176.134 261.831 176.133C296.205 177.994 318.021 180.766 318.021 183.865Z" fill="black"/>
<path d="M305.799 182.082C305.799 184.197 292.236 186.132 269.811 187.618C265.736 187.885 261.363 188.139 256.731 188.38C252.726 188.585 248.529 188.779 244.14 188.961C239.886 189.136 235.47 189.298 230.892 189.445C216.43 189.917 200.443 190.255 183.461 190.425C179.342 190.466 175.166 190.497 170.932 190.52C166.524 190.544 162.067 190.556 157.56 190.555C75.6875 190.555 9.31779 186.761 9.31779 182.082C9.31779 177.402 75.6875 173.608 157.56 173.608C175.663 173.608 193.008 173.795 209.046 174.135H209.086C224.254 174.457 238.252 174.916 250.616 175.486C251.554 175.529 252.481 175.572 253.398 175.613C253.404 175.617 253.41 175.619 253.417 175.619C259.081 175.894 264.38 176.191 269.263 176.51C269.317 176.513 269.371 176.518 269.425 176.521C292.082 178.01 305.799 179.953 305.799 182.082Z" fill="#3F3D56"/>
<path opacity="0.1" d="M269.263 176.51C267.256 189.563 254.603 185.189 239.292 185.189C223.117 185.189 209.91 190.071 209.086 174.135C224.254 174.457 238.252 174.916 250.616 175.486C251.554 175.529 252.481 175.572 253.398 175.613C253.404 175.617 253.41 175.619 253.417 175.619C259.081 175.894 264.38 176.191 269.263 176.51Z" fill="black"/>
<path d="M85.6905 172.539C85.6905 177.245 82.8944 178.888 79.4448 178.888C79.3649 178.888 79.285 178.887 79.2056 178.885C79.0458 178.882 78.8872 178.874 78.7308 178.864C75.6174 178.643 73.1991 176.916 73.1991 172.539C73.1991 168.011 78.9832 162.296 79.4189 161.873L79.4195 161.872C79.4361 161.855 79.4448 161.847 79.4448 161.847C79.4448 161.847 85.6905 167.834 85.6905 172.539Z" fill="#6C63FF"/>
<path d="M79.2171 178.168L81.5016 174.975L79.2114 178.519L79.2056 178.885C79.0458 178.882 78.8872 178.874 78.7308 178.864L78.9769 174.156L78.9751 174.119L78.9792 174.113L79.0027 173.668L76.7068 170.115L79.0096 173.334L79.0154 173.428L79.201 169.871L77.2356 166.201L79.2252 169.248L79.4189 161.873L79.4195 161.847V161.872L79.3873 167.687L81.3441 165.382L79.3792 168.188L79.3275 171.373L81.1549 168.316L79.32 171.842L79.2913 173.612L81.943 169.358L79.2809 174.23L79.2171 178.168Z" fill="#3F3D56"/>
<path d="M209.043 169.248C209.043 151.341 222.586 136.825 239.292 136.825C255.998 136.825 269.541 151.341 269.541 169.248C269.541 187.155 255.998 181.947 239.292 181.947C222.586 181.947 209.043 187.155 209.043 169.248Z" fill="#3F3D56"/>
<path d="M41.426 147.886H40.8858V184.411H41.426V147.886Z" fill="#3F3D56"/>
<path d="M41.1559 153.051C44.0074 153.051 46.3189 150.739 46.3189 147.886C46.3189 145.034 44.0074 142.721 41.1559 142.721C38.3045 142.721 35.993 145.034 35.993 147.886C35.993 150.739 38.3045 153.051 41.1559 153.051Z" fill="#3F3D56"/>
<path d="M41.156 170.397C41.156 170.397 40.4184 154.527 25.2982 156.372L41.156 170.397Z" fill="#3F3D56"/>
<path d="M191.491 153.896C191.626 154.373 191.776 154.846 191.937 155.317C191.216 154.608 190.509 153.879 189.787 153.174C190.077 153.265 190.365 153.355 190.638 153.462C190.935 153.58 191.221 153.725 191.491 153.896ZM187.999 151.528C183.749 147.831 178.825 144.969 174.469 141.385C176.848 142.556 179.161 143.92 181.456 145.227C184.178 146.779 186.932 148.27 189.719 149.701C189.265 150.412 188.681 151.032 187.999 151.528ZM189.816 142.219C189.884 142.15 189.952 142.08 190.02 142.01C190.022 142.536 190.026 143.027 190.032 143.473C189.651 143.346 189.272 143.217 188.893 143.084C189.219 142.815 189.527 142.527 189.816 142.219ZM152.382 152.227C154.133 150.248 155.654 148.077 156.916 145.756C158.604 148.704 161.345 150.831 163.677 153.3C159.92 152.804 156.157 152.395 152.382 152.227Z" fill="url(#paint0_linear)"/>
<path d="M31.6742 179.564C31.6742 184.27 28.8782 185.913 25.4286 185.913C25.3486 185.913 25.2687 185.912 25.1894 185.91C25.0296 185.907 24.871 185.9 24.7146 185.889C21.6012 185.668 19.1829 183.941 19.1829 179.564C19.1829 175.036 24.967 169.321 25.4027 168.898L25.4033 168.897C25.4199 168.88 25.4286 168.872 25.4286 168.872C25.4286 168.872 31.6742 174.859 31.6742 179.564Z" fill="#6C63FF"/>
<path d="M25.2009 185.193L27.4853 182L25.1951 185.544L25.1894 185.91C25.0296 185.907 24.8709 185.9 24.7146 185.889L24.9606 181.181L24.9589 181.144L24.9629 181.138L24.9865 180.693L22.6906 177.14L24.9934 180.359L24.9991 180.453L25.1848 176.897L23.2194 173.226L25.2089 176.273L25.4027 168.898L25.4032 168.872V168.897L25.3711 174.712L27.3278 172.407L25.363 175.213L25.3113 178.398L27.1387 175.341L25.3038 178.867L25.2751 180.637L27.9268 176.383L25.2647 181.255L25.2009 185.193Z" fill="#3F3D56"/>
<path d="M34.8405 142.123C36.3321 142.123 37.5413 140.913 37.5413 139.421C37.5413 137.928 36.3321 136.719 34.8405 136.719C33.3489 136.719 32.1397 137.928 32.1397 139.421C32.1397 140.913 33.3489 142.123 34.8405 142.123Z" fill="#6C63FF"/>
<path d="M208.499 101.602C208.499 101.602 218.297 99.4318 219.378 108.078C220.458 116.724 214.174 118.356 214.174 118.356L210.195 119.426L194.8 115.373L196.961 109.159L208.499 101.602Z" fill="#2F2E41"/>
<path d="M204.969 102.079C212.281 102.079 218.209 96.1485 218.209 88.833C218.209 81.5175 212.281 75.5872 204.969 75.5872C197.656 75.5872 191.728 81.5175 191.728 88.833C191.728 96.1485 197.656 102.079 204.969 102.079Z" fill="#2F2E41"/>
<path d="M158.443 116.338L161.133 116.88L170.28 130.41L166.245 130.951L158.443 116.338Z" fill="#2F2E41"/>
<path d="M93.373 171.236C94.0982 173.624 94.9916 175.958 96.0465 178.219C99.0783 177.585 102.061 176.735 104.972 175.675C105.062 175.643 103.302 173.341 103.118 173.153C102.421 172.443 101.519 171.614 100.597 171.213C99.6682 170.809 98.5238 171.117 97.5293 171.168C96.1452 171.239 94.7597 171.261 93.373 171.236Z" fill="#FBBEBE"/>
<path d="M100.613 174.85C99.0967 174.375 98.1752 172.849 97.5585 171.377C96.9417 169.905 96.4443 168.3 95.2745 167.219C94.8263 167.241 94.4652 167.605 94.2435 167.998C94.0217 168.39 93.8897 168.832 93.6334 169.203C93.1455 169.908 92.288 170.249 91.6746 170.847C91.0315 171.474 90.68 172.361 90.0144 172.964C89.1783 173.721 87.9964 173.909 86.8995 174.159C85.2029 174.547 83.5641 175.154 82.025 175.967C81.458 176.309 80.8517 176.581 80.2192 176.776C79.5233 176.91 78.8107 176.934 78.1074 176.847L73.2575 176.501C72.8259 176.446 72.388 176.465 71.9629 176.558C70.9659 176.838 70.3468 177.951 70.4201 178.99C70.4933 180.029 71.1392 180.959 71.9549 181.6C72.7991 182.205 73.7305 182.677 74.7169 183C78.9417 184.596 83.2911 185.839 87.7208 186.717L87.7232 187.677C90.8034 189.192 94.1898 189.981 97.6222 189.983C97.876 190.002 98.1306 189.958 98.3631 189.854C98.7035 189.669 98.8611 189.272 98.987 188.904C100.151 185.5 100.832 181.949 101.01 178.356C101.096 177.445 101.025 176.526 100.801 175.639C100.537 174.765 101.446 175.133 100.605 174.791" fill="#2F2E41"/>
<path d="M193.63 156.559C179.251 157.421 165.039 153.21 150.642 152.76C148.852 152.704 147.042 152.708 145.295 153.101C143.446 153.516 141.722 154.353 140.003 155.153C132.281 158.748 124.293 161.725 116.314 164.698L107.149 168.113C105.317 168.795 103.419 169.488 101.47 169.369C100.596 169.316 99.5229 169.183 99.0312 169.912C97.5402 172.122 98.2448 175.369 99.23 177.849C99.5497 178.654 100.091 179.523 100.948 179.614C101.551 179.679 102.112 179.329 102.698 179.172C104.366 178.725 106.03 179.848 107.747 180.031C109.868 180.257 111.837 179.048 113.84 178.307C117.16 177.08 120.791 177.118 124.281 176.537C130.133 175.562 135.557 172.843 140.628 169.746C142.558 168.566 144.512 167.303 146.73 166.872C149.28 166.376 151.899 167.033 154.4 167.741C160.362 169.428 166.231 171.428 171.984 173.731C175.013 174.944 178.02 176.244 181.172 177.083C187.989 178.878 195.2 178.458 201.762 175.882C204.064 174.972 206.565 173.363 206.697 170.879C206.772 169.463 205.674 168.215 204.94 167.003C204.47 166.227 203.999 165.45 203.486 164.7C201.007 161.074 197.998 156.298 193.63 156.559Z" fill="#2F2E41"/>
<path opacity="0.1" d="M193.63 156.559C179.251 157.421 165.039 153.21 150.642 152.76C148.852 152.704 147.042 152.708 145.295 153.101C143.446 153.516 141.722 154.353 140.003 155.153C132.281 158.748 124.293 161.725 116.314 164.698L107.149 168.113C105.317 168.795 103.419 169.488 101.47 169.369C100.596 169.316 99.5229 169.183 99.0312 169.912C97.5402 172.122 98.2448 175.369 99.23 177.849C99.5497 178.654 100.091 179.523 100.948 179.614C101.551 179.679 102.112 179.329 102.698 179.172C104.366 178.725 106.03 179.848 107.747 180.031C109.868 180.257 111.837 179.048 113.84 178.307C117.16 177.08 120.791 177.118 124.281 176.537C130.133 175.562 135.557 172.843 140.628 169.746C142.558 168.566 144.512 167.303 146.73 166.872C149.28 166.376 151.899 167.033 154.4 167.741C160.362 169.428 166.231 171.428 171.984 173.731C175.013 174.944 178.02 176.244 181.172 177.083C187.989 178.878 195.2 178.458 201.762 175.882C204.064 174.972 206.565 173.363 206.697 170.879C206.772 169.463 205.674 168.215 204.94 167.003C204.47 166.227 203.999 165.45 203.486 164.7C201.007 161.074 197.998 156.298 193.63 156.559Z" fill="black"/>
<path d="M120.98 171.936C123.231 172.704 125.501 173.411 127.791 174.055C129.073 171.95 131.472 170.484 132.018 168.077C132.052 167.972 132.052 167.86 132.019 167.755C131.96 167.652 131.87 167.571 131.761 167.524C130.12 166.615 128.299 166.081 126.427 165.96C124.949 165.867 124.275 167.411 123.605 168.496C123.334 168.935 121.582 172.142 120.98 171.936Z" fill="#FBBEBE"/>
<path d="M124.135 170.399C122.806 170.12 121.505 169.405 120.826 168.222C120.508 167.668 120.17 166.921 119.535 166.963C118.946 167.002 118.675 167.705 118.543 168.284C118.046 170.451 117.558 172.636 116.686 174.68C115.815 176.725 114.525 178.644 112.707 179.91C111.873 180.49 110.943 180.923 110.127 181.53C109.395 182.075 108.756 182.759 107.947 183.181C107.406 183.429 106.847 183.638 106.275 183.805C105.434 184.098 104.63 184.489 103.88 184.971C103.221 185.354 102.662 185.888 102.25 186.529C102.047 186.853 101.929 187.222 101.905 187.603C101.882 187.984 101.954 188.365 102.115 188.711C102.289 188.995 102.521 189.24 102.796 189.429C103.071 189.617 103.383 189.745 103.711 189.804C104.367 189.917 105.035 189.934 105.695 189.854C108.317 189.661 110.936 189.427 113.554 189.194C114.662 189.122 115.763 188.969 116.848 188.735C117.422 188.597 117.984 188.414 118.555 188.266C119.534 188.014 120.538 187.867 121.549 187.83C121.843 187.805 122.138 187.832 122.423 187.91C123.029 188.108 123.46 188.712 124.086 188.834C124.487 188.873 124.893 188.819 125.27 188.676C127.157 188.16 129.139 188.174 131.091 188.068C131.952 188.022 132.958 187.858 133.353 187.088C133.845 186.128 133.029 185.053 132.704 184.023C132.542 183.365 132.451 182.691 132.434 182.014C132.284 180.339 131.793 178.713 130.99 177.235C130.323 176.009 129.412 174.654 129.881 173.338C130.04 172.892 130.356 172.476 130.325 172.003C130.187 169.924 125.34 170.652 124.135 170.399Z" fill="#2F2E41"/>
<path d="M172.067 133.481C169.519 132.358 167.478 130.329 166.338 127.788C166.098 127.242 165.9 126.671 165.669 126.12C164.915 124.288 163.742 122.659 162.245 121.363C161.871 121.045 161.431 120.742 160.974 120.825C160.535 120.905 160.19 121.339 160.039 121.826C159.91 122.328 159.878 122.85 159.944 123.363C160.072 124.574 160.28 125.775 160.567 126.959L161.264 130.135C161.35 130.624 161.496 131.1 161.698 131.553C161.998 132.088 162.395 132.562 162.867 132.953C163.504 133.54 164.151 134.111 164.808 134.666C165.721 135.542 166.911 136.072 168.173 136.163C171.029 136.693 173.933 137.456 176.342 139.32C176.316 139.299 176.332 137.189 176.29 136.947C176.18 136.308 176.094 135.675 175.678 135.243C174.744 134.272 173.205 133.987 172.067 133.481Z" fill="#FBBEBE"/>
<path opacity="0.1" d="M172.067 133.481C169.519 132.358 167.478 130.329 166.338 127.788C166.098 127.242 165.9 126.671 165.669 126.12C164.915 124.288 163.742 122.659 162.245 121.363C161.871 121.045 161.431 120.742 160.974 120.825C160.535 120.905 160.19 121.339 160.039 121.826C159.91 122.328 159.878 122.85 159.944 123.363C160.072 124.574 160.28 125.775 160.567 126.959L161.264 130.135C161.35 130.624 161.496 131.1 161.698 131.553C161.998 132.088 162.395 132.562 162.867 132.953C163.504 133.54 164.151 134.111 164.808 134.666C165.721 135.542 166.911 136.072 168.173 136.163C171.029 136.693 173.933 137.456 176.342 139.32C176.316 139.299 176.332 137.189 176.29 136.947C176.18 136.308 176.094 135.675 175.678 135.243C174.744 134.272 173.205 133.987 172.067 133.481Z" fill="black"/>
<path d="M201.351 109.167C203.283 109.167 204.848 107.592 204.848 105.649C204.848 103.706 203.283 102.131 201.351 102.131C199.42 102.131 197.854 103.706 197.854 105.649C197.854 107.592 199.42 109.167 201.351 109.167Z" fill="#2F2E41"/>
<path d="M199.186 103.524C198.237 103.418 197.183 103.34 196.422 103.921C196.018 104.278 195.696 104.718 195.476 105.21C194.745 106.583 194.024 107.983 193.656 109.496C193.344 110.78 193.292 112.123 192.905 113.386C192.188 115.73 190.351 117.708 190.141 120.151C190.047 121.244 190.23 122.524 189.432 123.273C189.236 123.438 189.025 123.587 188.804 123.718C188.251 124.089 187.782 124.571 187.428 125.135C187.129 125.609 186.899 126.154 186.45 126.487C185.739 127.014 184.558 126.961 184.208 127.776C183.847 128.615 184.761 129.548 184.55 130.436C184.377 131.159 183.571 131.49 183.016 131.982C182.305 132.612 181.98 133.561 181.683 134.467C180.514 134.688 179.31 134.653 178.154 134.365C176.999 134.077 175.92 133.542 174.991 132.797C175.968 135.202 175.989 137.857 176.031 140.455C176.045 141.298 176.018 142.244 175.417 142.831C178.201 142.89 180.917 143.645 183.634 144.259C184.821 144.528 186.11 144.761 187.218 144.253C187.839 143.92 188.395 143.477 188.859 142.947C190.337 141.447 191.888 139.811 192.249 137.731C192.452 136.566 192.256 135.369 192.309 134.188C192.376 132.723 192.824 131.308 193.207 129.893C193.991 126.998 194.516 124.039 194.777 121.051C194.938 119.207 196.53 117.723 197.368 116.075C198.95 112.964 200.567 109.724 200.686 106.232C200.726 105.064 200.341 103.652 199.186 103.524Z" fill="#2F2E41"/>
<path opacity="0.1" d="M199.186 103.524C198.237 103.418 197.183 103.34 196.422 103.921C196.018 104.278 195.696 104.718 195.476 105.21C194.745 106.583 194.024 107.983 193.656 109.496C193.344 110.78 193.292 112.123 192.905 113.386C192.188 115.73 190.351 117.708 190.141 120.151C190.047 121.244 190.23 122.524 189.432 123.273C189.236 123.438 189.025 123.587 188.804 123.718C188.251 124.089 187.782 124.571 187.428 125.135C187.129 125.609 186.899 126.154 186.45 126.487C185.739 127.014 184.558 126.961 184.208 127.776C183.847 128.615 184.761 129.548 184.55 130.436C184.377 131.159 183.571 131.49 183.016 131.982C182.305 132.612 181.98 133.561 181.683 134.467C180.514 134.688 179.31 134.653 178.154 134.365C176.999 134.077 175.92 133.542 174.991 132.797C175.968 135.202 175.989 137.857 176.031 140.455C176.045 141.298 176.018 142.244 175.417 142.831C178.201 142.89 180.917 143.645 183.634 144.259C184.821 144.528 186.11 144.761 187.218 144.253C187.839 143.92 188.395 143.477 188.859 142.947C190.337 141.447 191.888 139.811 192.249 137.731C192.452 136.566 192.256 135.369 192.309 134.188C192.376 132.723 192.824 131.308 193.207 129.893C193.991 126.998 194.516 124.039 194.777 121.051C194.938 119.207 196.53 117.723 197.368 116.075C198.95 112.964 200.567 109.724 200.686 106.232C200.726 105.064 200.341 103.652 199.186 103.524Z" fill="black"/>
<path d="M195.911 159.589C192.916 158.163 190.725 155.505 188.304 153.231C183.681 148.888 178.028 145.814 173.168 141.743C169.946 139.044 167.065 135.902 163.524 133.643C160.406 131.656 156.872 130.417 153.197 130.022C152.776 129.95 152.344 129.972 151.932 130.085C151.468 130.291 151.063 130.611 150.756 131.016C149.188 132.786 147.794 134.704 146.594 136.742C140.433 147.205 131.683 156.001 124.433 165.732C124.201 165.96 124.064 166.268 124.048 166.593C124.032 166.918 124.138 167.238 124.346 167.488L125.821 170.379C126.646 171.997 127.968 173.881 129.747 173.56C130.56 173.413 131.208 172.815 131.807 172.242L138.427 165.911L145.368 159.273C149.435 155.384 153.572 151.404 156.223 146.429C158.295 150.024 161.971 152.377 164.493 155.669C165.453 156.92 166.236 158.297 167.093 159.622C168.466 161.747 170.027 163.74 171.586 165.731L179.548 175.898C180.634 177.284 181.75 178.699 183.234 179.639C185.12 180.833 187.414 181.148 189.633 181.347C192.624 181.615 195.627 181.724 198.63 181.672C200.919 181.633 203.28 181.483 205.334 180.466C207.388 179.449 209.076 177.361 208.969 175.06C208.913 173.864 208.393 172.742 207.821 171.692C204.977 166.471 201.26 162.135 195.911 159.589Z" fill="#2F2E41"/>
<path d="M203.503 110.791C204.989 110.791 206.193 109.579 206.193 108.085C206.193 106.59 204.989 105.379 203.503 105.379C202.018 105.379 200.813 106.59 200.813 108.085C200.813 109.579 202.018 110.791 203.503 110.791Z" fill="#2F2E41"/>
<path d="M202.909 106.051C203.564 107.21 203.565 108.652 203.204 109.934C202.843 111.217 202.154 112.378 201.472 113.521C200.802 114.646 200.123 115.781 199.223 116.731C203.375 116.93 207.401 115.3 211.065 113.326C214.013 111.738 216.955 109.777 218.528 106.808C217.608 107.085 216.594 106.812 215.78 106.3C214.989 105.749 214.28 105.088 213.674 104.338L211.589 101.992C211.099 101.481 210.669 100.916 210.307 100.308C209.856 99.4763 209.664 98.5283 209.757 97.5865C208.928 98.4537 208.003 99.2221 206.998 99.8765C205.509 100.846 203.868 101.549 202.376 102.513C201.846 102.855 200.67 103.405 200.973 104.096C201.268 104.771 202.489 105.31 202.909 106.051Z" fill="#FBBEBE"/>
<path opacity="0.1" d="M202.909 106.051C203.564 107.21 203.565 108.652 203.204 109.934C202.843 111.217 202.154 112.378 201.472 113.521C200.802 114.646 200.123 115.781 199.223 116.731C203.375 116.93 207.401 115.3 211.065 113.326C214.013 111.738 216.955 109.777 218.528 106.808C217.608 107.085 216.594 106.812 215.78 106.3C214.989 105.749 214.28 105.088 213.674 104.338L211.589 101.992C211.099 101.481 210.669 100.916 210.307 100.308C209.856 99.4763 209.664 98.5283 209.757 97.5865C208.928 98.4537 208.003 99.2221 206.998 99.8765C205.509 100.846 203.868 101.549 202.376 102.513C201.846 102.855 200.67 103.405 200.973 104.096C201.268 104.771 202.489 105.31 202.909 106.051Z" fill="black"/>
<path d="M202.965 106.461C202.185 107.774 202.018 109.324 202.965 110.52C203.083 110.669 203.521 111.593 203.71 111.602C203.894 111.586 204.064 111.5 204.184 111.362C205.193 110.439 205.932 109.263 206.817 108.221C207.703 107.18 208.821 106.23 210.168 106.02C211.793 105.767 213.363 106.629 214.785 107.46C215.376 107.806 215.989 108.172 216.361 108.749C216.661 109.29 216.838 109.891 216.879 110.509C217.37 114.212 217.359 117.962 217.348 121.698C217.339 124.399 217.329 127.118 216.819 129.77C216.555 131.14 216.158 132.485 215.971 133.868C215.833 135.089 215.777 136.317 215.804 137.546L215.8 142.687C215.765 143.632 215.832 144.577 215.999 145.507C216.243 146.633 216.776 147.673 217.132 148.77C217.5 150.029 217.751 151.32 217.883 152.626L218.586 157.95C218.808 159.627 218.972 161.461 217.958 162.811C217.5 163.421 216.898 163.91 216.433 164.515C214.694 166.782 215.252 170.016 214.526 172.785C213.953 174.813 212.776 176.618 211.152 177.959C209.909 179.016 208.303 179.847 206.702 179.55C204.541 179.149 203.243 176.895 202.654 174.765C202.065 172.635 201.85 170.317 200.574 168.518C199.531 167.049 197.917 166.125 196.456 165.076C194.996 164.027 193.569 162.675 193.251 160.899C193.113 160.123 193.199 159.324 193.117 158.54C193.001 157.547 192.62 156.603 192.014 155.808C191.408 155.012 190.6 154.394 189.674 154.018C188.568 153.587 187.202 153.434 186.579 152.418C188.187 151.512 189.255 149.836 189.817 148.07C190.38 146.303 190.494 144.429 190.605 142.578L190.975 136.391C191.14 133.626 191.215 130.886 192.432 128.401C192.976 127.291 193.653 126.251 194.219 125.151C194.968 123.609 195.608 122.015 196.134 120.383C197.016 117.848 197.899 115.312 198.685 112.745C199.06 111.522 199.42 110.276 200.088 109.187C200.756 108.097 201.715 106.696 202.965 106.461Z" fill="#6C63FF"/>
<path d="M189.232 146.656L190.868 146.715L191.217 144.24C191.262 143.745 191.379 143.26 191.563 142.798C191.833 142.31 192.148 141.848 192.504 141.419C194.115 139.142 193.997 136.12 194.396 133.355C194.928 129.667 196.468 126.214 197.992 122.817L201.168 115.733C201.802 114.531 202.105 113.182 202.047 111.824C202.075 110.729 202.399 106.744 202.427 105.649C202.438 105.244 201.534 105.469 201.351 105.108C200.953 104.322 200.408 106.454 199.664 106.922C198.92 107.39 198.509 108.238 198.193 109.061C197.509 110.846 197.09 112.722 196.452 114.524C195.814 116.326 194.922 118.096 193.487 119.351C192.834 119.921 192.083 120.373 191.467 120.982C189.491 122.937 189.298 126.025 189.229 128.812C189.187 130.47 188.867 146.656 189.232 146.656Z" fill="#2F2E41"/>
<path d="M212.791 103.507C211.202 104.132 210.33 105.857 209.883 107.514C209.437 109.17 209.255 110.936 208.401 112.423C206.405 115.898 201.317 116.91 199.909 120.665C199.448 121.894 199.468 123.242 199.344 124.549C199.089 127.24 198.205 129.839 197.943 132.529C197.741 134.613 197.915 136.713 198.09 138.799L199.869 160.019C200.126 163.084 200.119 166.377 199.336 169.35C201.136 169.702 203.009 169.231 204.679 168.469C206.349 167.707 207.874 166.661 209.482 165.774C212.247 164.248 215.296 163.167 217.717 161.134C218.155 160.793 218.531 160.378 218.826 159.907C219.312 159.068 219.351 158.054 219.582 157.111C219.792 156.359 220.058 155.625 220.379 154.913C221.265 152.775 222.038 150.591 222.693 148.371C223.143 146.897 223.498 145.397 223.757 143.878C223.951 142.669 224.055 141.447 224.16 140.226C224.289 138.315 224.669 136.429 225.289 134.617C226.836 130.296 227.712 125.763 227.886 121.176C227.939 120.514 227.894 119.847 227.753 119.197C227.542 118.392 227.067 117.688 226.677 116.953C225.938 115.56 225.494 114.028 224.797 112.613C223.22 109.418 220.437 106.995 217.521 104.964C216.09 103.967 214.413 102.869 212.791 103.507Z" fill="#2F2E41"/>
<path d="M175.61 138.124C174.38 137.407 173.149 136.635 172.223 135.55C171.779 135.03 171.413 134.446 170.962 133.932C169.865 132.683 168.309 131.908 166.702 131.503C165.094 131.098 163.422 131.037 161.765 131.023C160.656 131.013 159.52 131.029 158.482 131.421C157.444 131.813 156.508 132.659 156.307 133.756C156.066 135.075 156.928 136.362 157.963 137.208C158.925 137.995 160.059 138.545 161.272 138.815C162.261 138.989 163.26 139.106 164.263 139.166C170.152 139.783 175.405 142.989 180.566 145.909C185.098 148.473 189.718 150.871 194.426 153.101C194.613 151.691 194.691 150.267 194.659 148.845C194.635 147.782 194.582 146.163 193.579 145.539C192.41 144.812 190.486 144.645 189.167 144.213C186.133 143.218 183.17 142.018 180.298 140.623C178.705 139.85 177.143 139.017 175.61 138.124Z" fill="#FBBEBE"/>
<path d="M201.351 104.837C207.145 104.837 211.843 100.112 211.843 94.2835C211.843 88.4547 207.145 83.7296 201.351 83.7296C195.557 83.7296 190.86 88.4547 190.86 94.2835C190.86 100.112 195.557 104.837 201.351 104.837Z" fill="#FBBEBE"/>
<path d="M215.79 115.473C214.853 116.566 214.384 117.974 213.755 119.271C212.459 121.94 210.427 124.23 209.41 127.019C208.336 129.96 208.372 133.459 206.268 135.769C205.902 136.171 205.46 136.559 205.355 137.093C205.292 137.41 205.357 137.749 205.248 138.054C204.946 138.893 203.573 138.935 203.317 139.79C203.241 140.04 203.284 140.317 203.191 140.56C202.98 141.113 202.251 141.197 201.763 141.528C200.745 142.219 200.95 143.826 200.223 144.823C199.648 145.611 198.565 145.875 197.602 145.741C196.639 145.608 195.757 145.147 194.881 144.725C194.579 144.555 194.246 144.45 193.902 144.417C193.495 144.431 193.102 144.566 192.772 144.803C190.834 146.036 189.924 148.478 189.938 150.784C189.951 153.091 190.743 155.313 191.555 157.471C191.665 157.835 191.847 158.173 192.089 158.467C192.732 159.146 193.851 159.037 194.704 158.659C195.557 158.28 196.333 157.685 197.25 157.519C198.874 157.225 200.46 158.341 202.107 158.249C203.314 158.182 204.382 157.48 205.384 156.801C206.985 155.717 208.614 154.606 209.791 153.068C210.511 152.127 211.039 151.053 211.667 150.047C212.474 148.812 213.359 147.63 214.317 146.507L220.366 139.098C221.82 137.515 222.821 135.57 223.264 133.466C223.839 131.492 224.418 129.495 224.518 127.44C224.599 125.748 224.354 124.059 224.078 122.389C223.807 120.744 223.498 119.081 222.775 117.581C221.461 114.85 218.261 112.59 215.79 115.473Z" fill="#2F2E41"/>
<path d="M219.312 84.6385C226.625 84.6385 232.553 78.7081 232.553 71.3926C232.553 64.0771 226.625 58.1468 219.312 58.1468C212 58.1468 206.072 64.0771 206.072 71.3926C206.072 78.7081 212 84.6385 219.312 84.6385Z" fill="#2F2E41"/>
<path d="M230.733 82.3611C229.019 83.6002 227.034 84.4107 224.943 84.7248C222.852 85.0389 220.716 84.8475 218.714 84.1665C216.712 83.4855 214.902 82.3348 213.436 80.8107C211.97 79.2865 210.89 77.4332 210.286 75.4059C210.515 77.2227 211.117 78.9725 212.056 80.5446C212.994 82.1168 214.248 83.4772 215.738 84.5401C217.229 85.6029 218.924 86.3451 220.715 86.7196C222.507 87.0942 224.357 87.0931 226.148 86.7164C227.939 86.3397 229.633 85.5955 231.122 84.5309C232.611 83.4663 233.864 82.1044 234.8 80.5311C235.737 78.9578 236.337 77.2074 236.563 75.3903C236.79 73.5732 236.637 71.7289 236.115 69.9738C236.411 72.3317 236.068 74.726 235.121 76.9055C234.174 79.085 232.658 80.9694 230.733 82.3611Z" fill="#2F2E41"/>
<path d="M208.499 100.754C213.862 100.754 218.209 96.4054 218.209 91.0407C218.209 85.676 213.862 81.327 208.499 81.327C203.137 81.327 198.79 85.676 198.79 91.0407C198.79 96.4054 203.137 100.754 208.499 100.754Z" fill="#2F2E41"/>
<path d="M200.335 94.1314C205.088 94.1314 208.941 91.1167 208.941 87.398C208.941 83.6793 205.088 80.6647 200.335 80.6647C195.582 80.6647 191.728 83.6793 191.728 87.398C191.728 91.1167 195.582 94.1314 200.335 94.1314Z" fill="#2F2E41"/>
<path d="M203.641 99.5179C204.219 99.0472 204.116 97.9617 203.41 97.0934C202.704 96.225 201.663 95.9027 201.085 96.3735C200.506 96.8442 200.609 97.9297 201.315 98.7981C202.021 99.6664 203.062 99.9887 203.641 99.5179Z" fill="#FBBEBE"/>
<path d="M192.913 183.887C192.913 188.593 190.117 190.236 186.667 190.236C186.587 190.236 186.507 190.235 186.428 190.234C186.268 190.23 186.109 190.223 185.953 190.212C182.84 189.991 180.421 188.264 180.421 183.887C180.421 179.359 186.205 173.645 186.641 173.221L186.642 173.22C186.658 173.203 186.667 173.195 186.667 173.195C186.667 173.195 192.913 179.182 192.913 183.887Z" fill="#6C63FF"/>
<path d="M186.439 189.516L188.724 186.324L186.434 189.867L186.428 190.234C186.268 190.23 186.109 190.223 185.953 190.212L186.199 185.504L186.197 185.467L186.201 185.461L186.225 185.016L183.929 181.463L186.232 184.682L186.238 184.777L186.423 181.22L184.458 177.549L186.447 180.596L186.641 173.221L186.642 173.195V173.22L186.609 179.035L188.566 176.73L186.601 179.536L186.55 182.721L188.377 179.665L186.542 183.19L186.513 184.961L189.165 180.706L186.503 185.578L186.439 189.516Z" fill="#3F3D56"/>
</g>
<defs>
<linearGradient id="paint0_linear" x1="172.159" y1="155.317" x2="172.159" y2="141.385" gradientUnits="userSpaceOnUse">
<stop stop-color="#808080" stop-opacity="0.25"/>
<stop offset="0.53514" stop-color="#808080" stop-opacity="0.12"/>
<stop offset="1" stop-color="#808080" stop-opacity="0.1"/>
</linearGradient>
<clipPath id="clip0">
<rect width="321" height="194" fill="white"/>
</clipPath>
</defs>
</svg>
