<svg width="54" height="54" viewBox="0 0 54 54" fill="none" xmlns="http://www.w3.org/2000/svg">
<path d="M53.8377 15.8681C53.7063 12.9941 53.2498 11.0314 52.5824 9.31421C51.9046 7.51259 50.8417 5.88071 49.4681 4.53186C48.1197 3.15829 46.4874 2.09496 44.6858 1.41682C42.9682 0.749817 41.0059 0.293747 38.1319 0.163147C35.2525 0.031311 34.3326 0 27 0C19.6674 0 18.7475 0.031311 15.8681 0.162323C12.9941 0.293747 11.0318 0.750229 9.31421 1.41765C7.51259 2.09537 5.88071 3.15829 4.53186 4.53186C3.15829 5.88029 2.09496 7.51218 1.41682 9.3138C0.749817 11.0314 0.293747 12.9941 0.163147 15.8677C0.031311 18.7475 0 19.667 0 26.9996C0 34.3326 0.031311 35.2525 0.163147 38.1319C0.294159 41.0055 0.750641 42.9682 1.41806 44.6858C2.09578 46.487 3.15871 48.1193 4.53227 49.4677C5.88071 50.8413 7.513 51.9042 9.31462 52.5819C11.0318 53.2498 12.9945 53.7058 15.8685 53.8373C18.7483 53.9687 19.6679 53.9996 27.0004 53.9996C34.333 53.9996 35.2529 53.9687 38.1323 53.8373C41.0063 53.7058 42.9686 53.2498 44.6862 52.5819C48.3129 51.1795 51.1799 48.3125 52.5824 44.6858C53.2502 42.9682 53.7063 41.0055 53.8377 38.1319C53.9687 35.2521 54 34.3326 54 27C54 19.667 53.9687 18.7475 53.8377 15.8681ZM48.9775 37.9107C48.8576 40.5433 48.4176 41.9729 48.048 42.9241C47.1396 45.2791 45.2786 47.14 42.9237 48.0484C41.9724 48.418 40.5428 48.858 37.9102 48.9779C35.0638 49.1081 34.2098 49.1353 27 49.1353C19.7898 49.1353 18.9362 49.1081 16.0893 48.9779C13.4572 48.858 12.0276 48.418 11.0759 48.0484C9.90335 47.6154 8.84248 46.9254 7.97154 46.0285C7.07465 45.1575 6.38457 44.0971 5.95157 42.9241C5.58202 41.9729 5.14201 40.5433 5.02213 37.9107C4.89235 35.0638 4.86475 34.2098 4.86475 27.0004C4.86475 19.7906 4.89235 18.937 5.02213 16.0898C5.14243 13.4572 5.58202 12.0276 5.95157 11.0763C6.38457 9.90335 7.07506 8.84248 7.97154 7.97154C8.84248 7.07465 9.90335 6.38457 11.0763 5.95198C12.0276 5.58202 13.4572 5.14243 16.0898 5.02213C18.9366 4.89235 19.7906 4.86475 27 4.86475H26.9996C34.209 4.86475 35.063 4.89235 37.9102 5.02254C40.5428 5.14243 41.972 5.58243 42.9237 5.95198C44.0962 6.38498 45.1571 7.07506 46.028 7.97154C46.9249 8.84248 47.615 9.90335 48.0476 11.0763C48.4176 12.0276 48.8576 13.4572 48.9775 16.0898C49.1072 18.9366 49.1348 19.7906 49.1348 27C49.1348 34.2098 49.1077 35.0634 48.9775 37.9107Z" fill="url(#paint0_linear)"/>
<path d="M26.9996 13.135C19.3424 13.135 13.135 19.3428 13.135 27C13.135 34.6572 19.3424 40.8646 26.9996 40.8646C34.6572 40.8646 40.8646 34.6572 40.8646 27C40.8646 19.3428 34.6572 13.135 26.9996 13.135ZM26.9996 35.9999C22.0294 35.9995 17.9997 31.9702 18.0001 26.9996C18.0001 22.0294 22.0294 17.9997 27 17.9997C31.9706 18.0001 35.9999 22.0294 35.9999 26.9996C35.9999 31.9702 31.9702 35.9999 26.9996 35.9999Z" fill="url(#paint1_linear)"/>
<path d="M44.6524 12.5874C44.6524 14.3767 43.2018 15.8273 41.4126 15.8273C39.6229 15.8273 38.1723 14.3767 38.1723 12.5874C38.1723 10.7978 39.6229 9.34717 41.4126 9.34717C43.2018 9.34717 44.6524 10.7978 44.6524 12.5874Z" fill="url(#paint2_linear)"/>
<defs>
<linearGradient id="paint0_linear" x1="4.53159" y1="49.468" x2="49.4684" y2="4.53115" gradientUnits="userSpaceOnUse">
<stop stop-color="#FFD600"/>
<stop offset="0.5" stop-color="#FF0100"/>
<stop offset="1" stop-color="#D800B9"/>
</linearGradient>
<linearGradient id="paint1_linear" x1="17.1959" y1="36.8037" x2="36.8037" y2="17.1959" gradientUnits="userSpaceOnUse">
<stop stop-color="#FF6400"/>
<stop offset="0.5" stop-color="#FF0100"/>
<stop offset="1" stop-color="#FD0056"/>
</linearGradient>
<linearGradient id="paint2_linear" x1="39.1214" y1="14.8782" x2="43.7034" y2="10.2963" gradientUnits="userSpaceOnUse">
<stop stop-color="#F30072"/>
<stop offset="1" stop-color="#E50097"/>
</linearGradient>
</defs>
</svg>
