<svg width="202" height="75" viewBox="0 0 202 75" fill="none" xmlns="http://www.w3.org/2000/svg">
<path d="M90.2812 16.875V25.1875H96.0625V31.8125H90.2812V48.6875C90.2812 49.9375 90.5208 50.8333 91 51.375C91.4792 51.9167 92.3958 52.1875 93.75 52.1875C94.75 52.1875 95.6354 52.1146 96.4062 51.9688V58.8125C94.6354 59.3542 92.8125 59.625 90.9375 59.625C84.6042 59.625 81.375 56.4271 81.25 50.0312V31.8125H76.3125V25.1875H81.25V16.875H90.2812ZM116.656 59.625C111.698 59.625 107.656 58.1042 104.531 55.0625C101.427 52.0208 99.875 47.9688 99.875 42.9062V42.0312C99.875 38.6354 100.531 35.6042 101.844 32.9375C103.156 30.25 105.01 28.1875 107.406 26.75C109.823 25.2917 112.573 24.5625 115.656 24.5625C120.281 24.5625 123.917 26.0208 126.562 28.9375C129.229 31.8542 130.562 35.9896 130.562 41.3438V45.0312H109.031C109.323 47.2396 110.198 49.0104 111.656 50.3438C113.135 51.6771 115 52.3438 117.25 52.3438C120.729 52.3438 123.448 51.0833 125.406 48.5625L129.844 53.5312C128.49 55.4479 126.656 56.9479 124.344 58.0312C122.031 59.0938 119.469 59.625 116.656 59.625ZM115.625 31.875C113.833 31.875 112.375 32.4792 111.25 33.6875C110.146 34.8958 109.438 36.625 109.125 38.875H121.688V38.1562C121.646 36.1562 121.104 34.6146 120.062 33.5312C119.021 32.4271 117.542 31.875 115.625 31.875ZM149.781 52.3438C151.448 52.3438 152.802 51.8854 153.844 50.9688C154.885 50.0521 155.427 48.8333 155.469 47.3125H163.938C163.917 49.6042 163.292 51.7083 162.062 53.625C160.833 55.5208 159.146 57 157 58.0625C154.875 59.1042 152.521 59.625 149.938 59.625C145.104 59.625 141.292 58.0938 138.5 55.0312C135.708 51.9479 134.312 47.6979 134.312 42.2812V41.6875C134.312 36.4792 135.698 32.3229 138.469 29.2188C141.24 26.1146 145.042 24.5625 149.875 24.5625C154.104 24.5625 157.49 25.7708 160.031 28.1875C162.594 30.5833 163.896 33.7812 163.938 37.7812H155.469C155.427 36.0312 154.885 34.6146 153.844 33.5312C152.802 32.4271 151.427 31.875 149.719 31.875C147.615 31.875 146.021 32.6458 144.938 34.1875C143.875 35.7083 143.344 38.1875 143.344 41.625V42.5625C143.344 46.0417 143.875 48.5417 144.938 50.0625C146 51.5833 147.615 52.3438 149.781 52.3438ZM177.906 28.875C180.302 26 183.312 24.5625 186.938 24.5625C194.271 24.5625 197.99 28.8229 198.094 37.3438V59H189.062V37.5938C189.062 35.6562 188.646 34.2292 187.812 33.3125C186.979 32.375 185.594 31.9062 183.656 31.9062C181.01 31.9062 179.094 32.9271 177.906 34.9688V59H168.875V11H177.906V28.875Z" fill="#FDFDFD"/>
<rect y="5" width="63" height="59" fill="white"/>
<circle cx="31" cy="34" r="20" stroke="#3F3F3F" stroke-width="10"/>
<path d="M56 59V34L47 41.2222V59H56Z" fill="#3F3F3F"/>
</svg>
