<svg width="65" height="65" viewBox="0 0 65 65" fill="none" xmlns="http://www.w3.org/2000/svg">
<path d="M48.1536 28.8868C44.9121 28.6082 42.245 26.2882 41.4507 23.2206H34.4043V41.7795H47.4533C48.2068 37.6143 48.4499 33.2384 48.1536 28.8868Z" fill="#FD0056"/>
<path d="M48.8097 17.5242C46.7187 17.5242 45.0176 19.2253 45.0176 21.3163C45.0176 23.4072 46.7186 25.1083 48.8097 25.1083C50.9007 25.1083 52.6018 23.4072 52.6018 21.3163C52.6018 19.2253 50.9006 17.5242 48.8097 17.5242Z" fill="#6DDA47"/>
<path d="M16.0078 49.5357C19.1707 49.5357 21.7348 46.9716 21.7348 43.8087C21.7348 40.6458 19.1707 38.0817 16.0078 38.0817C12.8448 38.0817 10.2808 40.6458 10.2808 43.8087C10.2808 46.9716 12.8448 49.5357 16.0078 49.5357Z" fill="#C73232"/>
<path d="M30.5957 0C26.249 2.98695 22.7148 8.02318 20.2749 13.8546C19.5369 15.6187 18.9104 17.4811 18.3975 19.412H30.5957V0Z" fill="black"/>
<path d="M16.755 34.3052C20.9817 34.6347 24.4425 37.7299 25.324 41.7795H30.5957V23.2206H17.5504C16.902 26.8063 16.6291 30.5547 16.755 34.3052Z" fill="#42CAA9"/>
<path d="M30.5957 65V45.588H25.3744C24.8433 48.3892 23.0841 50.7595 20.6789 52.1171C23.0566 57.5419 26.3802 62.1569 30.5957 65Z" fill="black"/>
<path d="M34.4043 65C38.9612 61.8725 42.6113 56.5546 45.0593 50.3224C45.6567 48.8018 46.173 47.2185 46.6068 45.588H34.4043V65Z" fill="#42CAA9"/>
<path d="M48.6043 51.7148C46.713 56.5294 44.1526 60.6211 41.0354 63.865C50.5555 61.2802 58.3383 54.4785 62.2545 45.5881H50.5346C50.0169 47.7054 49.373 49.7577 48.6043 51.7148Z" fill="#0BA4C6"/>
<path d="M16.0078 53.3443C11.358 53.3443 7.47728 49.9982 6.64117 45.588H2.74548C6.64663 54.444 14.3842 61.2279 23.8541 63.8351C21.0902 60.9683 18.8097 57.4459 17.0343 53.2882C16.6969 53.3245 16.3546 53.3443 16.0078 53.3443Z" fill="#FD0056"/>
<path d="M51.9271 28.2454C52.2675 32.7967 52.0537 37.3862 51.3172 41.7795H63.6534C64.528 38.8388 65 35.7248 65 32.5C65 29.2753 64.528 26.1613 63.6534 23.2206H56.1686C55.5876 25.4644 54.0039 27.3074 51.9271 28.2454Z" fill="#FD0056"/>
<path d="M12.9603 34.7754C12.8064 30.8801 13.0567 26.9763 13.6866 23.2206H1.34659C0.472012 26.1613 0 29.2753 0 32.5C0 35.7248 0.472012 38.8388 1.34659 41.7795H6.6917C7.40657 38.4948 9.81868 35.8383 12.9603 34.7754Z" fill="#0BA4C6"/>
<path d="M48.7698 13.7167C48.7831 13.7165 48.7963 13.7156 48.8097 13.7156C52.3433 13.7156 55.3212 16.1396 56.1686 19.412H62.2546C58.3379 10.5207 50.5541 3.71834 41.0326 1.13434C41.7645 1.89656 42.4676 2.70602 43.1392 3.56359C45.4233 6.47995 47.313 9.89055 48.7698 13.7167Z" fill="#42CAA9"/>
<path d="M34.4043 0V19.412H41.4507C41.9721 17.3983 43.3014 15.7075 45.0695 14.7035C43.1898 9.90501 39.9354 3.77978 34.4043 0V0Z" fill="black"/>
<path d="M16.7615 12.3845C18.6117 7.96221 21.0471 4.17469 23.9684 1.13391C14.4465 3.71792 6.66225 10.5203 2.74536 19.412H14.468C15.0663 16.9618 15.8332 14.6033 16.7615 12.3845Z" fill="#0BA4C6"/>
</svg>
