<svg width="56" height="56" viewBox="0 0 56 56" fill="none" xmlns="http://www.w3.org/2000/svg">
<g clip-path="url(#clip0)">
<path d="M1.30097 56C0.986514 56 0.680606 55.8757 0.453738 55.6462C0.154666 55.3438 0.0393092 54.9045 0.151675 54.494L3.79224 41.1998C1.5257 37.1012 0.330691 32.4647 0.3324 27.7582C0.338809 12.4521 12.7947 0 28.0996 0C35.523 0.00299073 42.4982 2.89459 47.7409 8.14117C52.9828 13.3882 55.8684 20.363 55.8663 27.7804C55.8594 43.0869 43.4035 55.5399 28.0996 55.5399C28.0996 55.5399 28.088 55.5399 28.0876 55.5399C23.6173 55.5381 19.1855 54.4487 15.2394 52.3851L1.60303 55.9611C1.50305 55.9872 1.40137 56 1.30097 56Z" fill="#E5E5E5"/>
<path d="M1.30096 54.8084L5.07098 41.0413C2.74548 37.0119 1.52228 32.4412 1.52399 27.7586C1.52997 13.1096 13.451 1.19159 28.0996 1.19159C35.2081 1.19458 41.8804 3.96143 46.898 8.98328C51.9151 14.0051 54.6772 20.6804 54.6747 27.78C54.6683 42.4285 42.7455 54.3483 28.0996 54.3483C28.0987 54.3483 28.1 54.3483 28.0996 54.3483H28.088C23.6404 54.3466 19.2705 53.231 15.389 51.114L1.30096 54.8084ZM16.0414 46.3045L16.8485 46.7826C20.2391 48.7949 24.1266 49.8592 28.091 49.8613H28.0996C40.2735 49.8613 50.1822 39.9543 50.1873 27.7783C50.1895 21.8776 47.8943 16.3289 43.7239 12.1552C39.5532 7.98138 34.0079 5.68152 28.1077 5.67896C15.9239 5.67896 6.01563 15.5847 6.01093 27.7603C6.00922 31.9328 7.17645 35.9959 9.38788 39.5121L9.91339 40.3478L7.68146 48.4963L16.0414 46.3045Z" fill="white"/>
<path d="M2.2251 53.8809L5.86481 40.5897C3.6192 36.7 2.43872 32.287 2.44 27.7672C2.44556 13.6253 13.9543 2.12 28.0949 2.12C34.9581 2.12299 41.3997 4.79413 46.2426 9.64209C51.0867 14.4901 53.7527 20.9342 53.7501 27.7872C53.7441 41.9295 42.235 53.4361 28.0961 53.4361C28.0949 53.4361 28.0966 53.4361 28.0961 53.4361H28.0846C23.7912 53.4344 19.5721 52.3569 15.8252 50.3146L2.2251 53.8809Z" fill="#64B161"/>
<path d="M1.30096 54.8084L5.07098 41.0413C2.74548 37.0119 1.52228 32.4412 1.52399 27.7586C1.52997 13.1096 13.451 1.19159 28.0996 1.19159C35.2081 1.19458 41.8804 3.96143 46.898 8.98328C51.9151 14.0051 54.6772 20.6804 54.6747 27.78C54.6683 42.4285 42.7455 54.3483 28.0996 54.3483C28.0987 54.3483 28.1 54.3483 28.0996 54.3483H28.088C23.6404 54.3466 19.2705 53.231 15.389 51.114L1.30096 54.8084ZM16.0414 46.3045L16.8485 46.7826C20.2391 48.7949 24.1266 49.8592 28.091 49.8613H28.0996C40.2735 49.8613 50.1822 39.9543 50.1873 27.7783C50.1895 21.8776 47.8943 16.3289 43.7239 12.1552C39.5532 7.98138 34.0079 5.68152 28.1077 5.67896C15.9239 5.67896 6.01563 15.5847 6.01093 27.7603C6.00922 31.9328 7.17645 35.9959 9.38788 39.5121L9.91339 40.3478L7.68146 48.4963L16.0414 46.3045Z" fill="white"/>
<path fill-rule="evenodd" clip-rule="evenodd" d="M21.4576 16.6519C20.9603 15.5462 20.4365 15.524 19.9631 15.5048C19.576 15.4881 19.1329 15.489 18.6907 15.489C18.2481 15.489 17.5286 15.6556 16.9202 16.32C16.3114 16.9843 14.5956 18.5908 14.5956 21.8579C14.5956 25.1255 16.9753 28.2824 17.3073 28.7259C17.6393 29.169 21.9011 36.0878 28.6503 38.7495C34.2596 40.9618 35.4007 40.5217 36.6184 40.4111C37.8361 40.3004 40.5469 38.8046 41.1002 37.2542C41.6539 35.7037 41.6539 34.3749 41.4877 34.0968C41.3215 33.8204 40.8789 33.6542 40.215 33.3222C39.551 32.9902 36.2864 31.3834 35.6776 31.1621C35.0688 30.9403 34.6262 30.8301 34.1835 31.4949C33.7405 32.1588 32.469 33.6542 32.0815 34.0968C31.694 34.5407 31.3065 34.5963 30.6425 34.2639C29.9786 33.931 27.8398 33.2304 25.3028 30.9681C23.3289 29.2083 21.9959 27.0344 21.6084 26.3696C21.2213 25.7057 21.602 25.3776 21.9002 25.0148C22.4373 24.3616 23.3383 23.1871 23.5596 22.7445C23.7809 22.301 23.6703 21.9135 23.5045 21.5811C23.3383 21.2491 22.0476 17.9653 21.4576 16.6519Z" fill="white"/>
</g>
<defs>
<clipPath id="clip0">
<rect width="56" height="56" fill="white"/>
</clipPath>
</defs>
</svg>
